<mxfile host="app.diagrams.net" modified="2023-04-12T00:54:47.347Z" agent="Mozilla/5.0 (Windows NT 10.0; Win64; x64) AppleWebKit/537.36 (KHTML, like Gecko) Chrome/112.0.0.0 Safari/537.36" version="21.1.2" etag="WcOHnU77jzg8w1ZSrjNe" type="github">
  <diagram name="Page-1" id="8I2kTll_c89T3H5yRduW">
    <mxGraphModel>
      <root>
        <mxCell id="0" />
        <mxCell id="1" parent="0" />
      </root>
    </mxGraphModel>
  </diagram>
</mxfile>
